<svg width="24" height="24" viewBox="0 0 24 24" fill="none" xmlns="http://www.w3.org/2000/svg">
<path fill-rule="evenodd" clip-rule="evenodd" d="M12.562 2C12.6647 2 12.7674 2 12.8701 2C12.8701 3.50562 12.8701 5.0107 12.8701 6.51632C12.7504 6.51632 12.6303 6.51632 12.5107 6.51632C12.4947 5.00912 12.5117 3.50352 12.562 2Z" fill="#78AFA3"/>
<path fill-rule="evenodd" clip-rule="evenodd" d="M12.716 2.10498C12.7556 2.14491 12.7813 2.1974 12.7931 2.26253C12.8018 2.95415 12.81 3.64525 12.8187 4.33688C12.8269 5.05372 12.8013 5.76267 12.7417 6.46375C12.7207 6.4396 12.695 6.42227 12.6647 6.41125C12.6046 5.01117 12.5964 3.6106 12.639 2.21C12.676 2.18165 12.7017 2.14648 12.716 2.10498Z" fill="#76CBB8"/>
<path fill-rule="evenodd" clip-rule="evenodd" d="M19.8034 7.77639C19.7628 8.02489 19.8738 8.16514 20.1371 8.19664C20.1916 8.44389 20.3368 8.60139 20.5736 8.66914C20.6054 8.78539 20.6567 8.89039 20.7276 8.98439C20.7907 9.01789 20.8596 9.02689 20.933 9.01064C21.0156 9.24439 21.1698 9.39289 21.3952 9.45689C21.4003 9.69864 21.5199 9.82989 21.7545 9.85089C21.8413 9.97739 21.9183 10.1086 21.9855 10.2446C22.0376 10.2889 22.0975 10.3061 22.1655 10.2971C22.1567 10.4731 22.1655 10.6479 22.1911 10.8224C22.2398 10.9059 22.2999 10.9761 22.3708 11.0324C22.3881 11.4861 22.2598 11.8884 21.9855 12.2404C20.8369 13.4234 19.6817 14.5966 18.5196 15.7589C18.4379 15.7809 18.3609 15.8161 18.2886 15.8639C18.1998 15.8519 18.1566 15.7991 18.1602 15.7064C18.2023 13.9056 18.2023 12.1026 18.1602 10.2971C18.1089 10.2971 18.0576 10.2971 18.0062 10.2971C18.0405 12.2571 18.0576 14.2179 18.0576 16.1789C18.0062 16.1789 17.9549 16.1789 17.9033 16.1789C17.8752 14.3499 17.8412 12.5291 17.8007 10.7174C17.6225 8.89864 16.7667 7.52489 15.2333 6.59487C14.6202 6.35069 14.0039 6.12329 13.3848 5.91217C14.0477 5.85179 14.7153 5.82552 15.3873 5.83339C16.2101 5.82972 17.0316 5.85599 17.852 5.91217C18.0231 6.01722 18.1947 6.12224 18.3656 6.22727C18.8713 6.71829 19.3504 7.23439 19.8034 7.77639Z" fill="#79C9B8"/>
<path fill-rule="evenodd" clip-rule="evenodd" d="M7.68561 5.83301C7.77701 6.03728 7.81964 6.26468 7.81399 6.51571C7.83093 8.33643 7.84838 10.1567 7.86532 11.9772C8.26123 13.8352 9.31388 15.1397 11.0233 15.8897C11.3981 15.9632 11.7658 16.0599 12.1273 16.1784C12.2202 16.2269 12.2115 16.2709 12.1016 16.3099C10.7152 16.3449 9.32876 16.3449 7.94235 16.3099C7.79448 16.2867 7.65789 16.2342 7.53156 16.1522C6.653 15.3592 5.80576 14.5274 4.98983 13.6577C4.54618 13.1514 4.08404 12.6617 3.60341 12.1874C3.20753 11.5229 3.17311 10.8404 3.50072 10.1392C4.87327 8.67468 6.26788 7.23893 7.68561 5.83301Z" fill="#79C8B7"/>
<path fill-rule="evenodd" clip-rule="evenodd" d="M12.2038 7.56666C14.0882 7.41366 15.3977 8.21891 16.132 9.98241C16.5437 11.6702 16.0734 13.0267 14.7199 14.0522C13.1481 14.9802 11.6847 14.8317 10.3296 13.6059C9.1563 12.1999 9.0197 10.6944 9.91882 9.08966C10.5032 8.29666 11.2652 7.78866 12.2038 7.56666Z" fill="#79C9B8"/>
<path fill-rule="evenodd" clip-rule="evenodd" d="M19.8036 7.77711C19.8414 7.77036 19.8759 7.77911 19.9062 7.80336C20.6019 8.51486 21.2952 9.22386 21.986 9.93036C22.2416 10.2506 22.37 10.6181 22.371 11.0331C22.3001 10.9769 22.2399 10.9066 22.1913 10.8231C22.1656 10.6486 22.1568 10.4739 22.1656 10.2979C22.0979 10.3069 22.0378 10.2894 21.986 10.2454C21.9185 10.1094 21.8415 9.97811 21.7547 9.85136C21.52 9.83036 21.4005 9.69911 21.3954 9.45761C21.17 9.39361 21.016 9.24486 20.9331 9.01111C20.8598 9.02761 20.7909 9.01861 20.7278 8.98486C20.6569 8.89086 20.6056 8.78586 20.5738 8.66986C20.3372 8.60211 20.1917 8.44461 20.1372 8.19736C19.874 8.16561 19.763 8.02561 19.8036 7.77711Z" fill="#81BFB3"/>
<path fill-rule="evenodd" clip-rule="evenodd" d="M18.5187 15.7589C18.3292 16.0051 18.1068 16.2154 17.8511 16.3891C17.7998 14.4991 17.7829 12.6086 17.7998 10.7174C17.8403 12.5291 17.8743 14.3499 17.9024 16.1791C17.9538 16.1791 18.0051 16.1791 18.0564 16.1791C18.0564 14.2181 18.0396 12.2571 18.0051 10.2974C18.0564 10.2974 18.108 10.2974 18.1593 10.2974C18.2014 12.1029 18.2014 13.9056 18.1593 15.7064C18.1557 15.7994 18.1987 15.8519 18.2877 15.8639C18.36 15.8161 18.437 15.7809 18.5187 15.7589Z" fill="#7BBDB1"/>
<path fill-rule="evenodd" clip-rule="evenodd" d="M12.8711 15.7594C12.9887 15.7456 13.1001 15.7636 13.2048 15.8119C13.2464 17.3014 13.2376 18.7896 13.1792 20.2756C13.0765 20.2756 12.9738 20.2756 12.8711 20.2756C12.8711 18.7701 12.8711 17.2651 12.8711 15.7594Z" fill="#7AC4B2"/>
</svg>
