<svg width="24" height="24" viewBox="0 0 24 24" fill="none" xmlns="http://www.w3.org/2000/svg">
<path fill-rule="evenodd" clip-rule="evenodd" d="M9.72991 8C9.77192 8 9.81394 8 9.85595 8C9.85595 8.60225 9.85595 9.20428 9.85595 9.80653C9.807 9.80653 9.75785 9.80653 9.70891 9.80653C9.70239 9.20365 9.70933 8.60141 9.72991 8Z" fill="#78AFA3"/>
<path fill-rule="evenodd" clip-rule="evenodd" d="M9.79293 8.04199C9.8091 8.05796 9.81961 8.07896 9.82444 8.10501C9.82801 8.38166 9.83137 8.6581 9.83494 8.93475C9.8383 9.22149 9.8278 9.50507 9.80343 9.7855C9.79482 9.77584 9.78432 9.76891 9.77192 9.7645C9.74735 9.20447 9.74399 8.64424 9.76142 8.084C9.77654 8.07266 9.78705 8.05859 9.79293 8.04199Z" fill="#76CBB8"/>
<path fill-rule="evenodd" clip-rule="evenodd" d="M12.6922 10.3107C12.6756 10.4101 12.721 10.4662 12.8287 10.4788C12.851 10.5777 12.9104 10.6407 13.0073 10.6678C13.0203 10.7143 13.0413 10.7563 13.0703 10.7939C13.0961 10.8073 13.1243 10.8109 13.1543 10.8044C13.1881 10.8979 13.2512 10.9573 13.3434 10.9829C13.3455 11.0796 13.3944 11.1321 13.4904 11.1405C13.5259 11.1911 13.5574 11.2436 13.5849 11.298C13.6062 11.3157 13.6307 11.3226 13.6585 11.319C13.6549 11.3894 13.6585 11.4593 13.669 11.5291C13.6889 11.5625 13.7135 11.5906 13.7425 11.6131C13.7496 11.7946 13.6971 11.9555 13.5849 12.0963C13.115 12.5695 12.6424 13.0388 12.167 13.5037C12.1336 13.5125 12.1021 13.5266 12.0725 13.5457C12.0362 13.5409 12.0185 13.5198 12.02 13.4827C12.0372 12.7624 12.0372 12.0412 12.02 11.319C11.999 11.319 11.978 11.319 11.957 11.319C11.971 12.103 11.978 12.8873 11.978 13.6717C11.957 13.6717 11.936 13.6717 11.9149 13.6717C11.9034 12.9401 11.8895 12.2118 11.8729 11.4871C11.8 10.7596 11.4499 10.2101 10.8226 9.83809C10.5718 9.74042 10.3197 9.64946 10.0664 9.56501C10.3376 9.54086 10.6107 9.53035 10.8856 9.5335C11.2222 9.53203 11.5583 9.54254 11.8939 9.56501C11.9639 9.60703 12.0341 9.64904 12.104 9.69105C12.3109 9.88746 12.5069 10.0939 12.6922 10.3107Z" fill="#79C9B8"/>
<path fill-rule="evenodd" clip-rule="evenodd" d="M7.73511 9.53333C7.7725 9.61504 7.78994 9.706 7.78763 9.80641C7.79456 10.5347 7.8017 11.2628 7.80863 11.991C7.97059 12.7342 8.40122 13.256 9.10051 13.556C9.25386 13.5854 9.40426 13.6241 9.55215 13.6715C9.59017 13.6909 9.5866 13.7085 9.54164 13.7241C8.97448 13.7381 8.40731 13.7381 7.84014 13.7241C7.77965 13.7148 7.72377 13.6938 7.67209 13.661C7.31268 13.3438 6.96608 13.0111 6.63229 12.6632C6.4508 12.4607 6.26174 12.2648 6.06512 12.0751C5.90317 11.8093 5.88909 11.5363 6.02311 11.2558C6.58461 10.67 7.15513 10.0957 7.73511 9.53333Z" fill="#79C8B7"/>
<path fill-rule="evenodd" clip-rule="evenodd" d="M9.5834 10.2267C10.3543 10.1655 10.89 10.4876 11.1904 11.193C11.3588 11.8681 11.1664 12.4107 10.6127 12.8209C9.96971 13.1921 9.37103 13.1327 8.81668 12.6424C8.33669 12.08 8.28081 11.4778 8.64863 10.8359C8.88768 10.5187 9.19941 10.3155 9.5834 10.2267Z" fill="#79C9B8"/>
<path fill-rule="evenodd" clip-rule="evenodd" d="M12.6923 10.3107C12.7078 10.308 12.7219 10.3115 12.7343 10.3212C13.0189 10.6058 13.3025 10.8894 13.5851 11.172C13.6897 11.3001 13.7422 11.4471 13.7426 11.6131C13.7136 11.5906 13.689 11.5625 13.6691 11.5291C13.6586 11.4593 13.655 11.3894 13.6586 11.319C13.6309 11.3226 13.6063 11.3156 13.5851 11.298C13.5575 11.2436 13.526 11.1911 13.4905 11.1404C13.3945 11.132 13.3456 11.0795 13.3435 10.9829C13.2513 10.9573 13.1883 10.8978 13.1544 10.8043C13.1244 10.8109 13.0962 10.8073 13.0704 10.7938C13.0414 10.7562 13.0204 10.7142 13.0074 10.6678C12.9106 10.6407 12.8511 10.5777 12.8288 10.4788C12.7211 10.4661 12.6757 10.4101 12.6923 10.3107Z" fill="#81BFB3"/>
<path fill-rule="evenodd" clip-rule="evenodd" d="M21.9769 11.6971C21.9769 11.683 21.9769 11.6691 21.9769 11.6551C21.9769 11.6341 21.9769 11.6131 21.9769 11.5921C19.3791 11.5885 16.7815 11.5921 14.1836 11.6026C14.1326 11.6255 14.1326 11.65 14.1836 11.6761C14.1836 11.683 14.1836 11.6901 14.1836 11.6971C14.1557 11.6971 14.1275 11.6971 14.0996 11.6971C14.0996 11.6551 14.0996 11.6131 14.0996 11.571C16.7323 11.571 19.3652 11.571 21.9979 11.571C22.004 11.6181 21.9971 11.6601 21.9769 11.6971Z" fill="#89BCB2"/>
<path fill-rule="evenodd" clip-rule="evenodd" d="M21.9766 11.6551C19.3794 11.6759 16.7816 11.683 14.1833 11.6761C14.1323 11.65 14.1323 11.6254 14.1833 11.6025C16.7811 11.592 19.3788 11.5885 21.9766 11.592C21.9766 11.613 21.9766 11.6341 21.9766 11.6551Z" fill="#75CDBA"/>
<path fill-rule="evenodd" clip-rule="evenodd" d="M21.9769 11.655C21.9769 11.6691 21.9769 11.683 21.9769 11.697C19.379 11.697 16.7814 11.697 14.1836 11.697C14.1836 11.6901 14.1836 11.683 14.1836 11.676C16.7818 11.683 19.3797 11.6758 21.9769 11.655Z" fill="#7FC5B5"/>
<path fill-rule="evenodd" clip-rule="evenodd" d="M5.44501 11.6341C5.45908 11.6341 5.47295 11.6341 5.48702 11.6341C5.48702 11.6692 5.48702 11.704 5.48702 11.7391C5.3049 11.7391 5.12299 11.7391 4.94086 11.7391C3.95609 11.7528 2.97574 11.7389 2 11.6971C2 11.6692 2 11.641 2 11.6131C3.15198 11.6061 4.30017 11.6131 5.44501 11.6341Z" fill="#83C4B6"/>
<path fill-rule="evenodd" clip-rule="evenodd" d="M5.44499 11.634C5.44499 11.655 5.44499 11.676 5.44499 11.6971C4.31066 11.704 3.17633 11.6971 2.04199 11.676C2.05302 11.6616 2.06703 11.651 2.084 11.6445C3.20426 11.634 4.32473 11.6305 5.44499 11.634Z" fill="#71CDBA"/>
<path fill-rule="evenodd" clip-rule="evenodd" d="M2 11.6971C2.97574 11.7389 3.95609 11.7528 4.94086 11.7392C4.94086 11.7461 4.94086 11.7532 4.94086 11.7602C3.96051 11.7602 2.98036 11.7602 2 11.7602C2 11.7392 2 11.7181 2 11.6971Z" fill="#658A83"/>
<path fill-rule="evenodd" clip-rule="evenodd" d="M5.48708 11.634C5.50724 11.671 5.51418 11.713 5.50808 11.7601C5.31903 11.7601 5.12997 11.7601 4.94092 11.7601C4.94092 11.7531 4.94092 11.746 4.94092 11.7391C5.12304 11.7391 5.30495 11.7391 5.48708 11.7391C5.48708 11.704 5.48708 11.6691 5.48708 11.634Z" fill="#41645D"/>
<path fill-rule="evenodd" clip-rule="evenodd" d="M12.1668 13.5036C12.0893 13.6021 11.9983 13.6862 11.8937 13.7557C11.8727 12.9997 11.8658 12.2435 11.8727 11.487C11.8893 12.2117 11.9032 12.94 11.9147 13.6717C11.9357 13.6717 11.9567 13.6717 11.9777 13.6717C11.9777 12.8873 11.9708 12.1029 11.9567 11.319C11.9777 11.319 11.9988 11.319 12.0198 11.319C12.037 12.0412 12.037 12.7623 12.0198 13.4826C12.0183 13.5198 12.0359 13.5408 12.0723 13.5456C12.1019 13.5265 12.1334 13.5124 12.1668 13.5036Z" fill="#7BBDB1"/>
<path fill-rule="evenodd" clip-rule="evenodd" d="M9.85645 13.5036C9.90455 13.4981 9.95013 13.5053 9.99299 13.5246C10.01 14.1204 10.0064 14.7157 9.98248 15.3101C9.94047 15.3101 9.89846 15.3101 9.85645 15.3101C9.85645 14.7079 9.85645 14.1059 9.85645 13.5036Z" fill="#7AC4B2"/>
</svg>
